<?xml version="1.0" standalone="no"?>
<!DOCTYPE svg PUBLIC "-//W3C//DTD SVG 20010904//EN"
 "http://www.w3.org/TR/2001/REC-SVG-20010904/DTD/svg10.dtd">
<svg version="1.0" xmlns="http://www.w3.org/2000/svg"
 width="369.000000pt" height="85.000000pt" viewBox="0 0 369.000000 85.000000"
 preserveAspectRatio="xMidYMid meet">

<g transform="translate(0.000000,85.000000) scale(0.100000,-0.100000)"
fill="#FFFFFF" stroke="none">
<path d="M100 439 l0 -311 63 7 c163 17 204 38 226 120 15 54 13 370 -2 415
-7 19 -27 44 -46 57 -30 20 -46 23 -137 23 l-104 0 0 -311z m190 202 c15 -29
13 -363 -2 -383 -7 -9 -30 -18 -50 -21 l-38 -6 0 215 0 214 40 0 c29 0 42 -5
50 -19z"/>
<path d="M450 459 l0 -292 103 7 c167 11 167 11 167 58 l0 41 -85 -5 -85 -4 0
83 0 83 65 0 65 0 0 46 0 47 -65 -7 -65 -7 0 81 0 80 85 0 85 0 0 40 0 40
-135 0 -135 0 0 -291z"/>
<path d="M751 728 c0 -13 19 -135 42 -273 l43 -250 65 -3 c45 -2 69 1 76 10 8
11 94 492 93 526 0 8 -15 12 -43 12 l-43 0 -34 -214 c-19 -118 -35 -214 -36
-213 -1 1 -17 98 -35 215 l-33 212 -48 0 c-43 0 -48 -2 -47 -22z"/>
<path d="M1227 728 c2 -13 23 -131 47 -263 l42 -240 50 -3 c98 -6 92 -16 140
254 24 131 43 247 44 257 0 14 -9 17 -44 17 l-43 0 -34 -206 c-18 -113 -35
-201 -37 -195 -2 6 -18 97 -36 203 l-32 193 -51 3 c-48 3 -50 2 -46 -20z"/>
<path d="M1590 490 l0 -260 135 0 135 0 0 40 0 40 -85 0 -85 0 0 75 0 75 65 0
65 0 0 40 0 40 -65 0 -65 0 0 65 0 64 83 3 82 3 3 38 3 37 -135 0 -136 0 0
-260z"/>
<path d="M1910 490 l0 -260 45 0 45 0 1 178 1 177 33 -105 c19 -58 43 -138 55
-177 l22 -73 49 0 49 0 0 260 0 260 -40 0 -40 0 -1 -147 -1 -148 -47 145 -47
145 -62 3 -62 3 0 -261z"/>
<path d="M2250 710 l0 -40 50 0 50 0 0 -225 0 -225 50 0 50 0 0 225 0 225 50
0 50 0 0 40 0 40 -150 0 -150 0 0 -40z"/>
<path d="M2580 528 c0 -249 6 -275 67 -311 47 -27 134 -28 170 -1 44 33 51 77
52 317 l1 217 -50 0 -50 0 0 -223 c0 -234 -2 -247 -45 -247 -43 0 -45 13 -45
247 l0 223 -50 0 -50 0 0 -222z"/>
<path d="M2930 472 l0 -280 46 -4 c25 -2 47 -1 50 1 2 2 4 53 4 113 l0 108 29
0 c44 0 53 -21 60 -133 l6 -102 47 -3 47 -3 -5 103 c-7 129 -10 144 -35 169
l-20 20 23 19 c20 16 23 29 26 108 4 88 3 90 -26 123 l-30 34 -111 3 -111 4 0
-280z m168 186 c16 -16 16 -130 0 -146 -7 -7 -25 -12 -40 -12 l-28 0 0 85 0
85 28 0 c15 0 33 -5 40 -12z"/>
<path d="M3296 468 c-25 -156 -46 -289 -46 -295 0 -9 16 -13 45 -13 l44 0 7
50 7 50 46 0 c25 0 51 -4 57 -8 6 -4 15 -30 19 -58 l7 -52 45 -7 c25 -3 47 -4
50 -1 3 2 -16 138 -41 300 -25 163 -46 301 -46 306 0 6 -32 10 -74 10 l-73 0
-47 -282z m137 15 c21 -150 22 -143 -10 -143 -55 0 -56 6 -37 139 10 66 21
121 24 121 4 0 14 -53 23 -117z"/>
</g>
</svg>
